#!OML:ASF H:\Terrain\Patient Classification 1\Walking\liu\liu.ASF
:FULLY-SPECIFIED
:DEGREES
340
root 14.101934 24.949051 18.027149 8.564250 16.602900 -1.425354
lowerback -9.552299 -6.880965 -3.358065
upperback -2.171670 -9.071250 4.854855
thorax 3.965610 -4.568610 6.083446
lowerneck -30.446701 -7.877115 -19.237200
upperneck 32.136749 -10.268055 20.550900
head 16.895699 -3.843045 9.215730
rclavicle -0.000000 -0.000000
rhumerus -69.335846 7.014270 -121.803894
rradius 45.528297
rwrist -22.823400
rhand -40.291351 -44.016750
rfingers 10.687531
rthumb -0.428605 -88.986000
lclavicle -0.000000 -0.000000
lhumerus -43.155750 -34.054951 152.057999
lradius 38.961449
lwrist 6.027315
lhand -17.084400 -36.199501
lfingers 10.687531
lthumb 21.967800 7.994775
rfemur -51.923550 1.427984 35.175751
rtibia 61.572750
rfoot -17.451900 3.019560
rtoes -19.479750
lfemur 14.452455 9.422895 -17.481001
ltibia 57.822601
lfoot 17.676149 0.956127
ltoes -20.812651
341
root 14.044050 24.993301 18.244350 8.572890 16.130100 -2.163855
lowerback -9.208170 -6.548460 -3.183255
upperback -2.370090 -8.646240 5.146830
thorax 3.543510 -4.348875 6.367590
lowerneck -29.727900 -8.072535 -19.735500
upperneck 31.525650 -10.566900 21.136950
head 16.625099 -3.980430 9.454485
rclavicle -0.000000 -0.000000
rhumerus -69.241348 7.266960 -121.885651
rradius 46.316700
rwrist -24.187801
rhand -41.797501 -41.720848
rfingers 10.687531
rthumb -1.883250 -86.684853
lclavicle -0.000000 -0.000000
lhumerus -43.530899 -32.320648 151.680008
lradius 37.404152
lwrist 5.118540
lhand -16.482750 -35.115448
lfingers 10.687531
lthumb 22.547400 9.036104
rfemur -50.863197 3.287220 36.074997
rtibia 61.034100
rfoot -18.473400 2.075505
rtoes -18.831451
lfemur 11.690670 9.937485 -16.566299
ltibia 62.135250
lfoot 18.515100 2.147595
ltoes -19.979849
342
root 14.017651 25.050449 18.459900 8.852160 15.687901 -2.118375
lowerback -9.317924 -6.216495 -3.358230
upperback -2.292090 -8.191650 5.078115
thorax 3.652590 -4.125255 6.426960
lowerneck -29.786251 -8.267941 -19.989901
upperneck 31.065599 -10.814415 21.541500
head 16.537951 -4.067055 9.595290
rclavicle 0.000000 -0.000000
rhumerus -68.610153 7.232340 -121.944603
rradius 46.950451
rwrist -25.067249
rhand -43.196251 -36.649349
rfingers 10.687531
rthumb -3.234255 -81.602547
lclavicle 0.000000 -0.000000
lhumerus -43.533451 -31.192801 151.096497
lradius 36.161850
lwrist 4.544475
lhand -15.642300 -33.679951
lfingers 10.687531
lthumb 23.356949 10.409820
rfemur -50.134796 3.887715 36.294601
rtibia 60.540901
rfoot -18.892500 1.979250
rtoes -18.742199
lfemur 9.028200 10.457670 -16.753349
ltibia 66.081299
lfoot 18.382500 3.991710
ltoes -17.732100
343
root 14.008275 25.113001 18.674400 9.079246 15.989699 -1.699485
lowerback -9.508005 -6.166365 -3.614310
upperback -2.110920 -8.103374 4.847535
thorax 3.938595 -4.088475 6.318225
lowerneck -30.311699 -8.434680 -20.034149
upperneck 31.160252 -10.981319 21.537601
head 16.704601 -4.127010 9.577890
rclavicle 0.000000 0.000000
rhumerus -67.848747 7.319670 -122.066551
rradius 47.517601
rwrist -25.948948
rhand -42.834450 -33.670349
rfingers 10.687531
rthumb -2.884800 -78.626999
lclavicle 0.000000 0.000000
lhumerus -43.553101 -30.680550 150.594009
lradius 34.948502
lwrist 4.625025
lhand -15.546000 -32.834698
lfingers 10.687531
lthumb 23.449650 11.247810
rfemur -49.098900 3.254805 36.133499
rtibia 59.772148
rfoot -19.276199 2.346720
rtoes -19.152149
lfemur 6.289590 10.241190 -17.473200
ltibia 70.041153
lfoot 16.420950 6.634350
ltoes -18.583950
344
root 14.012489 25.173450 18.895802 9.103425 16.086451 -1.481194
lowerback -9.421440 -6.054195 -3.441795
upperback -2.270805 -7.954620 4.575810
thorax 3.669240 -4.004580 5.967705
lowerneck -30.189600 -8.437575 -19.548000
upperneck 31.582199 -11.000086 20.773500
head 16.782450 -4.185045 9.208680
rclavicle 0.000000 0.000000
rhumerus -67.917000 7.344045 -122.218948
rradius 48.277946
rwrist -26.723999
rhand -40.960201 -37.312950
rfingers 10.687531
rthumb -1.074660 -82.280853
lclavicle 0.000000 0.000000
lhumerus -44.455200 -29.799751 150.180008
lradius 34.019848
lwrist 4.076070
lhand -15.240900 -32.012249
lfingers 10.687531
lthumb 23.743351 12.047039
rfemur -47.636848 2.607135 36.160500
rtibia 58.889404
rfoot -19.760250 2.986080
rtoes -18.777300
lfemur 3.870120 10.153320 -18.059250
ltibia 73.777054
lfoot 13.954110 9.270150
ltoes -18.919050
345
root 13.985146 25.224901 19.056450 9.503760 15.982950 -2.232630
lowerback -8.987160 -5.876100 -2.680395
upperback -2.927235 -7.757625 4.717590
thorax 2.678430 -3.880770 5.765715
lowerneck -29.091150 -8.296260 -19.341000
upperneck 31.384501 -10.895490 20.467350
head 16.456200 -4.194945 9.063826
rclavicle 0.000000 0.000000
rhumerus -68.425652 8.058780 -122.815353
rradius 49.324348
rwrist -27.602400
rhand -39.314548 -46.978199
rfingers 10.687531
rthumb 0.514833 -91.947449
lclavicle 0.000000 0.000000
lhumerus -45.785252 -28.163849 149.636246
lradius 33.617851
lwrist 2.873010
lhand -14.713470 -30.658051
lfingers 10.687531
lthumb 24.251400 13.360485
rfemur -47.189400 3.235785 37.199551
rtibia 58.062000
rfoot -19.465799 2.378505
rtoes -17.164801
lfemur 0.460653 10.402110 -17.514149
ltibia 77.128052
lfoot 12.402286 11.438475
ltoes -14.481030
346
root 13.946791 25.261499 19.214701 9.808755 15.726299 -2.962065
lowerback -8.632860 -5.646555 -2.376795
upperback -3.191235 -7.471680 5.085300
thorax 2.192835 -3.728910 6.036076
lowerneck -28.744200 -8.286750 -19.974899
upperneck 31.050001 -10.882410 21.199650
head 16.324650 -4.172625 9.447795
rclavicle 0.000000 0.000000
rhumerus -68.380348 9.985110 -123.847198
rradius 50.758354
rwrist -29.155052
rhand -40.919548 -49.711498
rfingers 10.687531
rthumb -1.035336 -94.679398
lclavicle 0.000000 0.000000
lhumerus -46.397701 -26.884949 149.267395
lradius 33.358948
lwrist 2.163795
lhand -14.279415 -29.316301
lfingers 10.687531
lthumb 24.669300 14.668079
rfemur -46.722000 4.318155 38.190151
rtibia 57.103798
rfoot -19.054350 1.421802
rtoes -16.234049
lfemur -2.899425 10.870455 -16.879650
ltibia 80.361000
lfoot 10.748940 13.159111
ltoes -10.116915
347
root 13.967626 25.317600 19.495050 9.314325 15.446249 -1.409809
lowerback -8.735970 -5.490795 -3.865845
upperback -2.550240 -7.184025 4.638570
thorax 2.969595 -3.608325 6.399150
lowerneck -29.498848 -8.548800 -20.332651
upperneck 31.163849 -11.143770 21.513300
head 16.586700 -4.257690 9.594045
rclavicle -0.000000 -0.000000
rhumerus -67.547546 11.400480 -124.382843
rradius 52.083900
rwrist -30.521101
rhand -43.666801 -44.684700
rfingers 10.687531
rthumb -3.688650 -89.633102
lclavicle -0.000000 -0.000000
lhumerus -46.620602 -26.579700 149.021255
lradius 33.289799
lwrist 1.931550
lhand -13.389585 -28.272451
lfingers 10.687531
lthumb 25.525949 15.639450
rfemur -44.276699 3.543300 36.759449
rtibia 56.212200
rfoot -19.631100 2.345820
rtoes -15.733650
lfemur -3.593280 10.613640 -19.127550
ltibia 82.641449
lfoot 8.699085 14.802959
ltoes -9.217035
348
root 13.943085 25.358398 19.681799 9.438105 15.108601 -1.791855
lowerback -8.705145 -5.142240 -3.538470
upperback -2.439255 -6.739980 4.643940
thorax 3.000330 -3.387090 6.258300
lowerneck -29.581200 -8.776050 -20.322750
upperneck 30.809849 -11.425515 21.526951
head 16.520699 -4.380840 9.533895
rclavicle -0.000000 -0.000000
rhumerus -66.919800 12.349455 -124.965752
rradius 53.245800
rwrist -31.895250
rhand -44.656948 -43.600498
rfingers 10.687531
rthumb -4.644930 -88.536453
lclavicle -0.000000 -0.000000
lhumerus -47.370750 -27.622501 149.018097
lradius 33.459747
lwrist 2.676000
lhand -13.318155 -27.880352
lfingers 10.687531
lthumb 25.594650 16.025700
rfemur -43.284451 4.117380 37.381653
rtibia 55.245598
rfoot -19.519650 2.212575
rtoes -11.865120
lfemur -6.274245 10.902675 -19.046400
ltibia 85.144051
lfoot 7.668810 15.509850
ltoes -8.872095
349
root 13.925865 25.396652 19.886551 9.506160 14.831594 -2.376570
lowerback -8.963025 -4.888290 -2.944620
upperback -2.327505 -6.436635 4.702080
thorax 3.192930 -3.236670 5.993445
lowerneck -29.310600 -8.807775 -20.378250
upperneck 30.370199 -11.483010 21.698400
head 16.328550 -4.403730 9.581880
rclavicle 0.000000 0.000000
rhumerus -66.374100 13.536165 -125.676453
rradius 53.913902
rwrist -33.194550
rhand -44.772751 -44.263950
rfingers 10.687531
rthumb -4.756800 -89.198250
lclavicle 0.000000 0.000000
lhumerus -48.496502 -29.551201 149.485641
lradius 33.573448
lwrist 4.486035
lhand -14.080424 -27.932699
lfingers 10.687531
lthumb 24.860851 16.035601
rfemur -42.206848 4.591305 38.221199
rtibia 54.412949
rfoot -19.463850 2.042100
rtoes -7.944885
lfemur -8.714730 11.300295 -18.739050
ltibia 87.223198
lfoot 6.161715 16.228050
ltoes -8.749335
